/* XPM */
static char *_1b33bf0ac0f4dc5f8ec669b99ae0b1bYbQoFmaHCyCl698m[] = {
/* columns rows colors chars-per-pixel */
"64 64 10 1 ",
"  c None",
". c black",
"X c #5C0053",
"o c #99008A",
"O c #F26F9B",
"+ c #FF00E6",
"@ c #FF66F0",
"# c #FFA3F6",
"$ c #FFC8FA",
"% c white",
/* pixels */
"                                                                ",
"                                                                ",
"                                                                ",
"                                                                ",
"                                                                ",
"                                                                ",
"                                                                ",
"                                                                ",
"                                                                ",
"                           $$$######X                           ",
"                        $$$##@@@@@@ooXXX                        ",
"                       $##@@@@@+++++ooXXX                       ",
"                     ###@@@++++++++++oooXXX                     ",
"                    ###@@@+++++++++++++ooXXX                    ",
"                   ###@@@+++++++++++++++ooXXX                   ",
"                  ##@@@@++++++++++++++++oooXXX                  ",
"                 ##@....+++++++++.....+++oooXXX                 ",
"                ##@......+++++++.......+++oooXXX                ",
"                #@........+++++..%%.....+++ooXXX                ",
"               #@..%%.....++++..%%%%.....++oooXXX               ",
"               #@.%%%%....++++..%%%%.....+++ooXXX               ",
"              #@..%%%%....+++..%%%%%%.....++oooXXX              ",
"              #@..%%%%....+++..%%%%%......+++ooXXX              ",
"              #@..%%%%....+++...%%%%......+++ooXXX              ",
"             ##@...%%.....+++...%%%.......+++oooXXX             ",
"             @@@.........++++.............++++ooXXX             ",
"             @@+.........+++++...........+++++ooXXX             ",
"             @@+......%..+++++.......%%..+++++ooXXX             ",
"             @@++....%..+++++++.....%%..++++++ooXXX             ",
"             @@+++.....+++++++++.......+++++++ooXXX             ",
"             @@++++...+++++++++++....+++++++++ooXXX             ",
"             @@++++OOO++.++.++.++OOOO+++++++++ooXXX             ",
"             @@+++OOOOO++..+..++OOOOOO+++++++oooXXX             ",
"              @++++OOO+++++++++++OOOO+++++++oooXXX              ",
"              @@++++++++++++++++++++++++++++oooXXX              ",
"              @@+++++++++++++++++++++++++++ooooXXX              ",
"               @@++++++++++++++++++++++++++oooXXX..             ",
"               @@+++++++++++++++++++++++++ooooXXX..             ",
"                @++++++++++++++++++++++++ooooXXX...             ",
"                @@+++++++++++++++++++++ooooooXXX....            ",
"                 @++++++++++++++++++++ooooooXXX.....            ",
"                  @++++++++++++++++++ooooooXXX......            ",
"                   @+++++++++++++++oooooooXXX.......            ",
"                    o+++++++++++oooooooooXXX........            ",
"                     oooooooooooooooooooXXX.........            ",
"                      .oooooooooooooooXXX...........            ",
"                      ..oooooooooooXXXXX.........               ",
"                      .....oooooXXXXX............               ",
"                      ..........................                ",
"                      ..........................                ",
"                       ......................                   ",
"                       ...................                      ",
"                       ...................                      ",
"                            ..........                          ",
"                                                                ",
"                                                                ",
"                                                                ",
"                                                                ",
"                                                                ",
"                                                                ",
"                                                                ",
"                                                                ",
"                                                                ",
"                                                                "
};
