/* XPM */
static char *holyhole11655823069[] = {
/* columns rows colors chars-per-pixel */
"64 64 195 2 ",
"   c black",
".  c #130104",
"X  c #1B0206",
"o  c #001713",
"O  c #290107",
"+  c #260309",
"@  c #36040D",
"#  c #3B010A",
"$  c #00211B",
"%  c #052B1B",
"&  c #102C13",
"*  c #0E331B",
"=  c #193715",
"-  c #173F1B",
";  c #2C2D06",
":  c #002F26",
">  c #073A24",
",  c #54010F",
"<  c #5C270A",
"1  c #76250C",
"2  c #76343F",
"3  c #1A421B",
"4  c #2B4C17",
"5  c #224618",
"6  c #274918",
"7  c #2F5016",
"8  c #315016",
"9  c #3D5516",
"0  c #00402D",
"q  c #144926",
"w  c #1B4A24",
"e  c #1D5627",
"r  c #004337",
"t  c #014B33",
"y  c #075138",
"u  c #115A36",
"i  c #265523",
"p  c #215A26",
"a  c #295923",
"s  c #335C26",
"d  c #1A6035",
"f  c #1C6836",
"g  c #2F6423",
"h  c #346422",
"j  c #386721",
"k  c #3B6B21",
"l  c #246633",
"z  c #286A33",
"x  c #336D33",
"c  c #2C7333",
"v  c #287938",
"b  c #327832",
"n  c #327835",
"m  c #3C7D30",
"M  c #475B19",
"N  c #546B1C",
"B  c #46721F",
"V  c #5A741C",
"C  c #667C1A",
"Z  c #747918",
"A  c #467427",
"S  c #527427",
"D  c #677A22",
"F  c #005B40",
"G  c #006B46",
"H  c #336F61",
"J  c #53794F",
"K  c #880015",
"L  c #A02411",
"P  c #D0271D",
"I  c #F13A1D",
"U  c #C40424",
"Y  c #ED1C24",
"T  c #924609",
"R  c #B3410D",
"E  c #A75908",
"W  c #A06A32",
"Q  c #C2580B",
"!  c #D94417",
"~  c #E15A12",
"^  c #F35317",
"/  c #CC6F08",
"(  c #FF6600",
")  c #FF7600",
"_  c #F8760F",
"`  c #F16811",
"'  c #C2673E",
"]  c #FF7F27",
"[  c #A03344",
"{  c #D03650",
"}  c #B35041",
"|  c #A46466",
" . c #D9524A",
".. c #F14950",
"X. c #E56E44",
"o. c #F4614A",
"O. c #D95F73",
"+. c #2F8136",
"@. c #28823C",
"#. c #398032",
"$. c #7C8119",
"%. c #4C8D2F",
"&. c #5A8329",
"*. c #598B2B",
"=. c #53952F",
"-. c #54992F",
";. c #5A9E2F",
":. c #418531",
">. c #448F32",
",. c #4A8F30",
"<. c #538C30",
"1. c #429235",
"2. c #499231",
"3. c #519830",
"4. c #668726",
"5. c #798A22",
"6. c #6C9427",
"7. c #699628",
"8. c #789424",
"9. c #749E26",
"0. c #5EA12E",
"q. c #64A42C",
"w. c #7BA226",
"e. c #568E5B",
"r. c #719352",
"t. c #6AA55B",
"y. c #78A657",
"u. c #7AAE7F",
"i. c #868916",
"p. c #8B931B",
"a. c #979A1B",
"s. c #B0960E",
"d. c #A79A15",
"f. c #92A31E",
"g. c #9DA61B",
"h. c #A4A418",
"j. c #AAA818",
"k. c #B2AB15",
"l. c #819220",
"z. c #879C20",
"x. c #83A723",
"c. c #B3A13E",
"v. c #FF8200",
"b. c #FD8903",
"n. c #FF9700",
"m. c #FF8A1F",
"M. c #FF9B12",
"N. c #FF9219",
"B. c #C9AA0E",
"V. c #C4AB10",
"C. c #F7A100",
"Z. c #FAA601",
"A. c #FFB300",
"S. c #D8893A",
"D. c #FF8533",
"F. c #FF9633",
"G. c #D8BA3D",
"H. c #F8AC35",
"J. c #F9B533",
"K. c #FCB836",
"L. c #FFC233",
"P. c #8C9847",
"I. c #85A653",
"U. c #93B351",
"Y. c #95B150",
"T. c #A9AC49",
"R. c #B7AB45",
"E. c #A7B54B",
"W. c #B3B948",
"Q. c #92B175",
"!. c #B0B46B",
"~. c #FF9952",
"^. c #FF9D5C",
"/. c #C5BB43",
"(. c #FFA946",
"). c #FFA14C",
"_. c #FAAE4E",
"`. c #FFB054",
"'. c #C4BB6A",
"]. c #F9AD61",
"[. c #FFBB6B",
"{. c #FBAC77",
"}. c #FFB772",
"|. c #AFC372",
" X c #FCC75C",
".X c #CBC66A",
"XX c #FDCF79",
"oX c #B3BD89",
"OX c #FBBD8B",
"+X c #ACC993",
"@X c #F7CB88",
"#X c #E3D797",
"$X c #FDECB1",
"%X c #FCF2BB",
"&X c #FDF6CE",
/* pixels */
"+.f +.f +.+.+.f +.+.y f +.+.+.+.+.+.+.+.+.+.+.f f f #.+.1.D 8.4.E.l.*.a.f y.*.D *.*.#.+.+.+.+.>.>.1.+.l +.+.f +.+.+.>.+.+.f +.f ",
"u +.f +.l +.f f y +.d +.u +.f +.f u +.+.f u u f +.u +.+.+.m e.1.a.8.a.*./.a.8.7.y.+.*.G G >.>.q.q.3.1.+.@.F G +.+.+.b u u u f f ",
"+.f G +.y q.+.d q.u +.+.f #.+.f q.f q.2.F 2.F y G n e.H *.d.E.a.k.q.v R.g.d./.x f :.f 2.+.F 1.+.+.+.+.>.f -.2.d f +.@.>.m q.+.+.",
"+.f y u q.m u f d y +.y +.l q.f #.+.q.q.q.+.G m G y t.W.*.S p.l./.Y.j.T.f.Y.!.8.#.*.u +.+.#.+.@.@.q.+.q.q.+.+.m +.m q.1.2.m u +.",
"f +.f +.q.d u +.u f q.q.u 2.q.f @.u f y G G F q.c f d 0.x.a.h./.,.y.*.d.n s.l.W u.*.k.m m q.2.+.G +.+.2.m q.m +.q.q.m f +.2.+.u ",
"u u u +.f +.f f +.q.m l f f c +.2.y G r 2.+.G -.e.y.I.w.Y.p.Q.s.Q.T.I.z /.k.f.N /.+.y #.2.>.z G >.>.>.+.>.+.q.+.c >.d q.q.f +.+.",
"+.+.1.+.#.b +.f +.d f -.q.q.+.f 2.r u r f m q.b #.&.A f l.d.g.d.a.!.a.P.d.g.t.5.E.*.<.>.G r >.G +.>.>.,.f 2.+.1.f +.>.q.2.u u f ",
"+.f q.b q.q.#.+.+.#.f z ,.=.+.F n r q.f G 3.m >.7.w.3.I.d.V.R.y..X.XB.c.B.W.W.<.f.+.f r r 1.0.@.+.r :.G 3.l +.q.2.>.>.>.+.+.+.+.",
"+.f #.#.+.:.+.1.q.-.>.b n -.3.z v r c m n f ;.+.2.A 6.3..XQ.|.T.G.e./. Xg.R.k.w.y.q.D s ;.-.q.z r >.+.G +.>.2.m 2.2.2.f +.+.+.+.",
"f #.#.+.+.;.>.q.m c f c 2.u +.r q.n ;.l 3.>.f +.:.e.>.f.Q.L.n E.j.U.G.%.V.|.#X-.C x.z.&.q.q.m G ;.m G q.-.+.v 2.+.+.q.>.+.+.+.+.",
"+.#.+.f >.>.z m 2.+.u m +.f +.>.q.,.+.;.u 1.u f A >.v x g.#Xn U.w.s.oXE.h.|.3.a.+.x.2.z.1.q.>.+.q.q.@.q.+.3.q.f #.f q.2.f u f +.",
"f f +.+.b >.-.:.f +.1.q.2.@.#.>.f c >.l <.2.>.-.l.7.z.9..Xx.v W.k.W.H XXW.B.;.e.*.8.x.1.3.2.=.;.q.;.#.r z @.G q.-.G 2.+.r y +.+.",
"+.>.u f +.+.+.+.>.+.+.+.1.z #.0.,.+.3.2.q.F #.<.f.<.f.g.Y.e.'.Y.l.@Xz.T.W.7.a.+.*.=.j.z.A 1.u >.1.=.%.q.f G 3.2.-.q.m r G G +.+.",
">.+.+.+.+.+.f +.+.>.f +.2.1.z u 0.c +.1.F 9.v S 8.E.r.k.a.oXj.d.V.+Xf.5.l.*.*.*.5.c z.*.9.+.:.,.>.q.q.b z z @.1.q.m 2.G +.q.+.f ",
"+.>.-.+.+.b +.+.>.3.u >.>.#.>.z n ,.1.1.1.m 9.f.B.8.h.F #Xk.+XI./.I.y.W.f.k.q.B.k.7.9.#.6.0.q.q.#.;.f G +.:.G >.%.2.f +.#.#.+.f ",
"+.>.-.2.q.G G +.+.z m 3.@.>.q.+.>.>.,.r @.q.q.1.w.8./.Y.W.e.E.Q.|.|.G.x.k.<.k.a.A 9.4.9.7.2.+.f +.=.>.+.%.y +.+.+.1.+.f 2.q.+.+.",
"+.#.r 1.+.r +.y v #.q.q.q.>.-.>.2.0.0.f.9.0.q.2.f.g.p.3..X.XI.w.*.E.y.h.t.h.&.x.B.8.>.9.z.*.+.#.>.+.:.A ;.:.G >.+.f f f q.q.f +.",
">.r :.#.#.r +.2.%.>.2.q.=.-.>.3.,.-.x.g.w.*.f.>.R.z.I..Xy.U.w./.x.T.p.g.h.*.7.g.j.-.9.7.#.*.0.3.#.1.1.+.f c q.3.f +.+.2.m +.+.+.",
"f >.f +.+.2.z c %.q.+.-.>.3.+.f 3.g.2.g.2.=.7.a.6.*.z.k.q.|.y.U..Xg.x.#Xt.5.y.z.h.*.*.+.>.-.u 0.>.#.f +.>.u F f >.u +.+.f +.f +.",
"#.f f @.>.G z 1.+.2.>.;.q.+.3.f >.4.*.-.9.=.Y.f.8.p.j.E.g.;.h.t.y.*.|.g.E.t.0.f h.*.w.A 7.w.w.,.3.>.+.#.+.f +.f +.+.f +.+.f +.f ",
"f +.;.z >.0.q.l :.#.>.;.0.0.>.b +.;.9.q.x.k.k.*.f.7.9.|.!.Y.8.8.8..Xq.+XI.g.|.7.V n x.f w.h.u -.+.3.1.#.,.m q.+.+.u f +.f +.+.+.",
"r f +.f -.q.m z 1.z -.q.q.0.0.=.9.&.+.w.k.a.h./.G.f.Y.!.w.8.Y.p.Q.|.w.Q.@.E.k.#.>.n z.q.b 6.f :.-.2.n f b 2.m m +.f +.u +.f y u ",
"+.+.m G @.;.#.-.0.1.u -.q.>.;.0.>.k.7.*.w.h.z.w.E.V.x.f.E.U.d.8.e.w.t.@.<.U.v E.0.E.w.*.7.>.3.#.z m ;.>.f +.u f +.#.2.m c q.+.f ",
"u +.1.c +.v y #.1.0.3.3.=.9.9.7.;.6.w.6.5.t.;.W.#.s.d.i Q.i.N C !.B +Xu.|.U.7.S S 3.n q.f.7.3.y +.A +.#.#.2.b m q.+.+.y +.+.f +.",
"+.+.+.#.+.z q.u 2.q.:.+.#.*.%.w.h.;.3.4.f.w.W.d.k s.z.D !.j r.V !.!.J J H t.S 9.9.h.f.0.f w.*.*.y -.*.f +.#.+.d q.m 2.+.+.+.+.+.",
"+.+.1.2.r c =.-.b =.#.b b y 2.>.>.#.g.c M W c.i.B Z p N i.P.Q.Z r.g p a r.M Q.Q.p $.B u f.f.b -.+.>.f 1.+.+.u +.=.q.%.+.+.c f u ",
"+.f G c r -.+.w i %.%.m 7.3.m h N C i.Z P.h A S P.M $.h 4.a g D * B e p e.$.W C V % e.a s.Z g.0.+.8.+.2.+.*.m b >.2.2.+.+.+.+.+.",
"f #.+.:.q.#.>.q p h 9 k B p e V Z i.G.s.$.1 | T T 1 1 , , , 2 , W < 2 | , , W , , T , j g $.q N >.9.&.A a B b q.+.m ;.G G f +.+.",
"+.+.: p 3.z 4.V a   N B Z i , L T E W / W ' L ' L R L K L | K K K R K R Q R ' Q } ' } 2 1 1 V M p 3.;.C B V p m m B +.#.f t p p ",
"+.f c w i k &.a q < h i.e , K Q L R ' Q S.Q R  .P { ~ P U U U P P U { U { P ' U ~ L } P P [ K , T h e 6 i.X C k k   B B k + X p ",
"y u A a + N w h w @ < < , R E U !  .~ J.P X.Y ]  .U O.X.! Y { U U ! P ! U { ..U o.U U P P U { K T O k @ @   M k g X j g +   q q ",
"+.+.v p V @ < A a j K R K P U P P Y D.o.m.^ o.^ ..X.! P I Y Y Y U  .P Y o.I ).Y Y ~ U U U O.{ P U K K K @   e N +   t a @ g a q ",
"q p q q i ;   @ K L Q U U P U ` F.) v.v.n.XX) D.Y P { U Y ( ( { I Y { ....o.) ) X.o.Y U ..P U { Y Y { U L L K L L @     @ + p p ",
"+ < ; < # N / K / ! ! U P P P _ v.v.].n.( ^.) ( I I U P Y ( Y ....o...o.F.( ( ( D.D.Y Y P Y P { I Y Y U U U U U L K , @     X a ",
"q @ p @ < L Q P P P Y ^ Y Y U I v.F.F.) v.F.) ) ) o.U Y Y ( ( I Y D.( ( ) ) ) ( F.( ( Y I Y  .Y Y ) Y Y I U U U U U K K @ f p p ",
"< M X < L L U P ~ I I ) ( ^ ^ ..v.F.v.F.F.v.D.( ) I Y Y D.( D.( Y ( ) ^.D.( ( ).F.v.( ( ( Y v.( D.( D.( o.U U U U U U K K y p i ",
"q q ; L L P ! Y I Y ( v.v.F.) XXv.N.v.].F.M.m.).) D.Y Y ( D.( ( ( ( ~.( ( {.] ).F.( m.m.( F.F.].) v.b.F.^ U P Y Y U U U K K e g ",
"M , K L ! ~ Y I b.b.) ( ) ( H.D.M.[.F.N.M.M.N.(.] ( ( Y ( ( ] {.^.( ] }.m.~.m.(.) ) @XM.^.F.( (.N.( F.b.I U U U Y Y I U U K # f ",
"p , K U ! Y ^ ) b.n.) m.(.b.( m.M.m. Xm.~.m.}.~.] ] ( ^.( ( ~.D.~.{.{.~.).] ~.~.H.N.N.(.D.) ].N.M.v.I _ U P I ..P Y Y U U K , u ",
", 1 K ! Y ^ ( ) ) D.(.] ] ).n.}. XN.[._.(.m.~.N.m.] m.) ( D.~.OX{.@X] m.] ~.[.N.).(.K.D.@X) ).N.(.v.v.I U I Y U I I Y U U K , , ",
", , L L Y ` v.) M.m.M.N.).(.m.Z.m.D.] M.m.N.m.).m.D.) ^.~.~.~.~.{.K.{.~.~.N._.~.{.~.(.m.m.M.M.~.D.).) ^ ^ I Y ^ Y ( Y U K K , , ",
", , , L R ^ n.( )  XD.m.m.] ~.).M.m.] ).(.N.m.] ~.m.(.OX] ] ] XX{.n.C.~.m.N.{.m.).m.[.] }.@X`.N.}.~.F.n.I ( ) F.( ( U K K , , , ",
"# , , K K L L ) v.( (.m.] ).~.m.J.(.m.N.C.]  XC.Z.@XK.H.J.J.C.K.Z.Z.XXJ.Z.J. XJ.J.~.@XZ.~.).(.m.M.(.m.v.) ( D.) ( U K , , , , p ",
"p , , , , Q K K U ( m.m.] M.N.J.}.m.C.J.C.Z.Z.L.K.A.A.A.L.A.L.L.L.XXL.L.A.A.A.L.C. Xn.).m.m.~.}.Z.N.m.(.(.m.P U K K , , @ @ , q ",
"p @ , , , , K L L E P N.m.).Z.J.Z.C.Z.A.A.L.A.L.L.A.L.#X{.{.OXOX].OX].OXZ.A.L.L.L. XJ. XZ.). XZ.Z.m.N.] P P K L K , ,   @ @ p p ",
"p , , @ , , , , L L L } K } L K L.A.L.A.{.{._.].].{.{.].%X$X$X&X%X&X&X}._.OX].{.}.XXA.A.n.J.Z.K.P U U ` K L K , , , @       p p ",
"p , @ @ , @ @ , 1 , , K L R L K K ' K U { { $X$X#X$X&X&X%X&X%X%X&X%X&X%X&X&X$XXX$XU P ~ P P  .! / R ' K , , , @ @ , , , , q q > ",
"q > , ,   @ , , , , , , , , , , K K L L [ [ K P U U P U U U U U U O.U P { U U P U E } [ L L K K K L , , , , , @ @ @ @ @ , , , p ",
"q @ + +     , @ , @ @ , , , , , , , K K K K K K K [ K K K K K K K K K [ [ K K K K L [ } K K 1 , , , , , , 5 5 , , , k , @ @ , q ",
"p + + p :   , @ @ @ @ @ , , , , , , , , , , K L K K K K K [ } K K K K K L K R K K L [ , , , , =     , , - - B k # , B B G X p p ",
"          # , @ @ @ @ @ @   , , , @ , , , , , , , , , , , , , 1 , , , , , , , , , , , , ,     4 6 8   , , 5 h B , p , B +.e > p ",
"p f p   # w > ,   ,   @ @       r @ @ @ , , , , , , , , , , , , , , , , , , , @ @ , ,     , e 3 a 5 ,     , #.k , a # # X   p p ",
"p * % # + 0 t , ,   # , @ # , 6 7     @ @ @ , , , @ @ , , , , , , , @ , , , , @       4 h @ , 7 6 , , k p a p q , j a : 3 +.1.p ",
"p * - X #   A + , , 8 5 4 = @ , @ @ g l @ e @ @ @ @ @ , , , , @ @ @ @ @ @ , , , 4 5 6 3 4 5 , 5 4 , @ @ + @ @ @ , + + F e r p p ",
"- - X + @ + a + + , h * 3 4 X     + + @ k g B @     @ @ , , @ @ @ @ @ @ @ @ @ @ , # 4 6 4 , @ O 8 a l B i @ , a + +     j a p +.",
"            :   X X # k 6 =     * w * 3 3 3 + g @   @ @ @ , @ @ @               , , , 7 @ G k 4   h k B @ a e g     a p h B +.+.",
"- * q h   = - h   X +     g 5 * e k g B g k g 3 u     @ @ @ @ @     8 5 w - 5 O @ , , , , A - 6 g , k + X g 3 u e B : : p u n p ",
"i q * = * = & 6 3 3 3 j k e a g j g B B t p 3 e , @ # e r         7 5 $ w 8 = 5 + 4 @ , @ , , , , k B f B 6 k w B j w i h B q p ",
"+.- p 5 - i 8 i a e p h q g g h 0 g k p p 3 g @ @ B 3 3 5 6 8 5 = = & : p : > X p + @ @ @ @ , , k g 8 8 5 = q g q h q a B q p +.",
"e * h h g B 4 t +.6 = - e e 3 3 * 3 > 8 & $ B + $ 5 $ 3 : * * 3 5 A i k i a k a 8 5 e     @ @ @ @ 3 k g e : e j i k B +.v F +.f ",
"p 3 +.: h p 5 $ 3 & : p 5 p : $ % : :   . X X $ > 5 : q : 3 % : 0 3 a 3 p 8 8 : 4 & & o 6       + +     f u > q p +.u c r G +.+.",
"+.+.: t +.1.: w g e : r p 0 w o q 3 $ $ % 6 : : : 3 e 3 * : $ : a p j 3 q B 5 w e +.g $ 3 3 3 % 4 $ p $ - 3 h +.c >.+.m 1.r f f ",
"+.+.+.r +.#.p : t +.a p q g p p +.+.p p p +.: : f p p q g +.f e p g #.e b 3.#.f 1.-.1.+.+.+.j p h - * q +.#.>.>.+.#.+.+.+.f f f ",
"+.f +.f u +.+.+.+.+.p u u +.f +.+.+.+.+.+.+.+.q f r +.f f +.+.f +.2.f f f +.3.>.1.2.+.+.#.f +.+.f 1.#.+.+.>.+.+.#.+.+.+.f +.+.+."
};
