/* XPM */
static char *holyhole21655823069[] = {
/* columns rows colors chars-per-pixel */
"64 64 188 2 ",
"   c black",
".  c #130104",
"X  c #1B0206",
"o  c #001713",
"O  c #290107",
"+  c #260309",
"@  c #36040D",
"#  c #3B010A",
"$  c #00211B",
"%  c #052B1B",
"&  c #102C13",
"*  c #0E331B",
"=  c #193716",
"-  c #173F1B",
";  c #26330B",
":  c #002F26",
">  c #003422",
",  c #073926",
"<  c #0C3F26",
"1  c #54010F",
"2  c #5F000F",
"3  c #622508",
"4  c #76250C",
"5  c #76343F",
"6  c #1A421B",
"7  c #264717",
"8  c #2B4C17",
"9  c #224618",
"0  c #284A18",
"q  c #2F5016",
"w  c #315016",
"e  c #3D5516",
"r  c #00402D",
"t  c #144926",
"y  c #1B4A24",
"u  c #1D5627",
"i  c #004337",
"p  c #014B33",
"a  c #0A5137",
"s  c #00523C",
"d  c #115A36",
"f  c #265523",
"g  c #215A26",
"h  c #295923",
"j  c #335B28",
"k  c #1A6035",
"l  c #1C6836",
"z  c #2F6423",
"x  c #346422",
"c  c #386721",
"v  c #3B6B21",
"b  c #246633",
"n  c #286A33",
"m  c #336B32",
"M  c #2C7333",
"N  c #287938",
"B  c #327832",
"V  c #327834",
"C  c #3C7D30",
"Z  c #536D1C",
"A  c #46721F",
"S  c #687D1A",
"D  c #737A17",
"F  c #447324",
"G  c #577727",
"H  c #005B40",
"J  c #006B46",
"K  c #337C66",
"L  c #507950",
"P  c #64784B",
"I  c #880015",
"U  c #A02411",
"Y  c #D0271D",
"T  c #F13A1D",
"R  c #C40424",
"E  c #ED1C24",
"W  c #92420A",
"Q  c #B3410D",
"!  c #A85908",
"~  c #B16A21",
"^  c #D94417",
"/  c #F35317",
"(  c #FF6600",
")  c #FF7600",
"_  c #F8750F",
"`  c #EF6911",
"'  c #CE793C",
"]  c #FF7F27",
"[  c #A03344",
"{  c #D03650",
"}  c #D9524A",
"|  c #F14950",
" . c #E96C45",
".. c #CE696D",
"X. c #EC7171",
"o. c #2F8136",
"O. c #28823C",
"+. c #398032",
"@. c #7C8216",
"#. c #4C8C2F",
"$. c #53832C",
"%. c #598B2B",
"&. c #4E902F",
"*. c #53952F",
"=. c #54992F",
"-. c #5A9E2F",
";. c #418531",
":. c #448F32",
">. c #4A8F30",
",. c #538C30",
"<. c #459335",
"1. c #499231",
"2. c #519830",
"3. c #638B28",
"4. c #7A8B22",
"5. c #6C9627",
"6. c #699628",
"7. c #789424",
"8. c #749E26",
"9. c #5DA12E",
"0. c #64A42C",
"q. c #7AA226",
"w. c #528D5C",
"e. c #698F50",
"r. c #73AB59",
"t. c #76AA58",
"y. c #6E9E7F",
"u. c #8C8D16",
"i. c #87971F",
"p. c #A69412",
"a. c #92A31F",
"s. c #99A91D",
"d. c #A3A319",
"f. c #A8A618",
"g. c #B1A915",
"h. c #839820",
"j. c #83A723",
"k. c #83A824",
"l. c #FF8200",
"z. c DarkOrange",
"x. c #FF9600",
"c. c #FF8A1F",
"v. c #FF9B12",
"b. c #FF9219",
"n. c #F7A100",
"m. c #FAA500",
"M. c #FCA704",
"N. c #FFB300",
"B. c #FF8533",
"V. c #FF9133",
"C. c #FF9B33",
"Z. c #FEA535",
"A. c #FAB633",
"S. c #FCB935",
"D. c #FFC233",
"F. c #98B14F",
"G. c #86A752",
"H. c #83B656",
"J. c #AEB248",
"K. c #ACB56E",
"L. c #FF9952",
"P. c #FF9D5C",
"I. c #FFAA45",
"U. c #FFA14C",
"Y. c #FAAE4E",
"T. c #F6816F",
"R. c #F9AD61",
"E. c #FFBB6B",
"W. c #FFAD75",
"Q. c #F7AB79",
"!. c #FFB470",
"~. c #FFB97D",
"^. c #ACC674",
"/. c #FCC85C",
"(. c #C2C36D",
"). c #FEC871",
"_. c #FDDA79",
"`. c #95B08F",
"'. c #F68B8F",
"]. c #F9BC8D",
"[. c #ABCE94",
"{. c #FFC68B",
"}. c #FDD098",
"|. c #FDE696",
" X c #FDCCA7",
".X c #FEEAAA",
"XX c #FCF2BB",
"oX c #FEEAC8",
/* pixels */
"o.l o.l o.o.o.l o.o.a l o.o.o.o.o.o.o.o.o.o.o.l l l +.o.<.V 7.G O.%.o.7.l o.%.l o.o.o.o.o.o.o.:.:.<.o.l o.o.l o.o.o.:.o.o.l o.l ",
"d o.l o.l o.l l a o.d o.d o.l o.l d o.o.l d d l o.d o.o.O.e.O.>.%.o.o.V 6.%.V <.o.o.J J J <.:.0.0.2.:.o.O.H J o.o.o.B d d d l l ",
"o.l J o.a 0.o.k 0.d o.o.l C o.l 0.l 0.1.s 2.H a H n o.m O.4.-.e.k.0.%.l :.G 0.H l l l 1.o.H :.o.o.o.o.:.l 2.1.k l o.O.:.C 0.o.o.",
"o.l s d 0.C d l k a o.H o.b 0.l C o.0.0.0.o.J +.J s :.^.O.H F +.s.o.8.h.q.1.<.J 6.o.d o.o.+.o.O.O.0.o.0.0.o.o.+.o.C 0.:.1.C d o.",
"l o.l o.0.k d o.d l 0.0.d 1.0.l o.d l s J J s 0.M l d H.:.h.F.k.5.h.,.,.N o.m j o.o.0.C C 0.1.o.J o.o.1.C 0.C o.0.0.C l o.1.o.d ",
"d d d o.l o.l l o.0.C b l l M o.1.s J i 1.o.J =.l 2.H.2.r.b G.G.;.F 6.h.V 0.0.i 0.o.s C 1.:.n J :.:.:.o.:.o.0.o.M :.k 0.0.l o.o.",
"o.o.1.o.+.B o.l o.k l =.0.0.o.l 1.i d i l +.H.M r.G.u w.3.e.6.l :.g.+.i +.N :.n 0.o.O.:.J i :.J o.:.:.1.l 1.o.:.l o.:.0.1.d d l ",
"o.l 0.B 0.0.+.o.o.+.l n #.*.o.H o.i 0.l J 2.;.:.;.2.q.G.<.-.l K.7.d.O.i 2.k.0.%.2.o.l i i :.9.O.o.i ;.J 2.n o.0.1.:.:.:.o.o.o.o.",
"o.l C +.o.;.o.1.0.=.:.M V =.2.n N i n C V w.-.o.2.y.G.a.=.=.q.4.<.7.f.%.;.4.0.0.o.0.d i -.2.0.n i :.o.J o.+.1.C 1.1.1.l o.o.o.o.",
"l +.+.o.o.-.:.0.C M l B 1.d o.i 0.o.9.b 2.:.l N :.l :.7.G.g.7.,.h.1.:.O.,.-.2.a.d 0.:.V 0.0.C J 9.+.J 0.9.+.N 1.o.o.0.:.o.o.o.o.",
"o.+.o.l :.:.n C 1.o.d +.o.l o.:.0.>.o.-.d ;.K w.d #.$.K [.C J =.a.m %.3.0.0.2.%.o.0.1.:.:.0.:.o.0.0.O.0.O.2.0.l +.l 0.1.l d l o.",
"l l o.o.o.:.2.;.l o.:.0.2.O.+.:.l M :.b >.r.>.t.C :.:.d.M 7.5.6.H.d.G 6.a.k.=.M %.o.0.:.2.1.=.-.0.9.+.i n O.J 0.=.J 1.o.i H o.o.",
"o.:.d l o.o.o.o.:.o.o.o.:.n +.-.>.o.2.1.0.H :.2.r.q.r.+.o.K p.F.h.>.h.G 6.1.o.o.o.2.0.:.l :.d :.:.*.#.0.l J =.<.=.0.C i J J o.o.",
":.o.o.o.o.o.l o.o.:.l o.:.:.n d 9.M o.:.H *.N l O.2.l (.C t.:.6.k.h.-.n +.%.o.o.B M ;.o.2.o.;.>.:.0.0.B n n O.:.0.C 1.J o.0.o.l ",
"o.:.2.o.o.B o.o.:.2.d :.<.+.:.n o.1.:.:.:.C 2.t.d.o.<.a 1.$.6.K.k.m O.f.8.5.s.k.0.:.2.+.1.-.0.0.+.-.l J o.;.J :.#.:.l o.C C o.l ",
"o.:.2.1.0.J J o.o.n C 2.O.:.0.o.:.:.:.i o.0.0.G.q.j.-.9.a.J.O.%.8.8.a.6.0.>.0.6.d 2.C 2.:.1.o.l o.=.:.o.&.a O.o.o.:.o.l 1.0.o.o.",
"o.+.i :.o.i o.H N +.0.0.9.:.=.:.:.9.=.=.*.q.0.:.=.6.5.f.t.G.H.g.%.q.7.8.1.:.M 0.#.o.:.2.<.o.V :.:.o.;.+.9.+.J :.o.l l l 0.0.l o.",
":.i +.;.+.i o.&.&.:.*.0.*.=.:.2.#.=.0.0.=.G.=.:.+.F.G.=.t.0.F.t.0.%.5.:.a.%.:.k.9.2.2.:.+.+.2.=.+.:.:.o.l M 0.=.l o.o.1.+.o.o.o.",
"l :.l o.o.1.n M #.0.o.=.:.2.o.l =.0.1.0.&.8.r.o.(.e.G.<.k.F.w.q.2.q.8.0.1.l N 2.5.o.C o.:.=.d -.:.+.l o.<.d s l :.d o.o.l o.l o.",
"+.l l O.:.J n :.o.:.:.-.0.o.2.l :.+.+.q.8.a.%.a.t.s.o.H.0.^.2.<.a.o.0.j.a.:.-.l 9.4.=.l :.2.-.:.=.:.o.+.o.l o.l o.o.l o.o.l o.l ",
"l o.-.n :.9.0.n ;.+.:.9.9.9.:.B o.-.=.j.0.-.8.%.a.i.r.f.%.=.%.o.4.0.0.9.<.C 5.1.G V 0.l 2.2.d 2.o.=.:.+.#.C 0.o.o.d l o.l o.o.o.",
"i l o.l 2.0.C n :.n *.0.0.9.9.*.2.B o.=.j.o.2.[.J.J.7.1.q.a.s.5.2.t.8.2.O.0.s.+.:.V <.0.V >.l ;.=.1.o.l B :.C +.o.l o.d o.l a d ",
"o.o.C J O.-.+.2.0.:.J 2.0.:.-.9.6.i.s.4.q.=.6.F.t.5.j.=.8.8.*.w.w.q.2.,.,.0.M 0.9.1.9.o.:.>.2.+.b +.-.#.l o.d l o.+.1.C M 0.o.l ",
"d o.:.n o.N H ;.#.-.2.*.*.=.2.:.9.6.9.d.%.3.=.0.&.p.S g u.L Z x A v F %.5.s.3.n G 8.J k.2.1.2.H N b o.+.+.1.B C 0.o.o.a o.o.l o.",
"o.o.o.;.o.n 0.d 1.0.;.o.C +.6.-.=.q.8.l j.=.x +.@.e.S D e.c P e.S S S Z j F n 8.,.2.-.q.l 9.V o.s 2.o.l o.+.o.k 0.C 1.o.o.o.o.o.",
"o.o.:.1.i M =.*.B *.+.B B a 6.:.:.%.0.u.6 6 L ! 3.;.Z L D e.A u.~ K.h.z u F F d u @.v d -.0.V =.o.:.l :.o.o.d o.*.0.#.o.o.M l d ",
"O.l J M i 2.o.y h :.#.+.:.a.3.x D c @.D @.@.@.@.e.t Z @.S e.`.u.L A @.z z @.F h z > z Z v Z 9.0.o.+.o.1.o.o.C B :.1.1.o.o.o.o.o.",
"l C o.;.0.+.<.t g e e v A g g t x F x u.g 4 4 ! W W 4 1 W ~ 4 5 3 1 W 1 1 1 1 W 4 # 3 z g S < h :.2.B l h A B 0.o.+.-.J J l o.o.",
"o.o.: g 2.b C x h   h F h u 1 1 1 4 W 4 1 Q I I I Q I Q [ I [ I I U [ U I I I I U I U 1 1 1 z = g *.9.v A x g C C A o.+.l p g g ",
"o.l M y f v B h t + x v g W I I U U Q U Q U U ` Y } } R } Y R R R R X.{ R R Y R R U I R R U I 1 # v g 8 A X v v v   A A v + X g ",
"a d C h + h y x f @ @ @ 1 I I R ^ Y Y Y ^ Y T ^ ^ R ^ Y Y E Y R R R } Y { R T R E R R Y R R R I 2 O v @ #   - v z X c z +   t t ",
"o.o.M f z @ @ F h c I I I ^ R Y R E / T T T / T T R R Y E T ` E R { ..E E X.) E / Y R R Y R R Y R U U I # ; u h +   p h @ z h t ",
"t u t t f     @ I I 2 R ^ R ^ E ( ) ( V.l.) ) ( E R Y } T B.] Y E E { E E | ( ) X.E E R E R ^ R E T R R U U I I I @     @ + g g ",
"+ @   @ @ h I I I R R R Y Y R T ( l.B.) B.x.) x.T / ^ Y _ _ |  .T E E | ( ) ( ( B.V.E E R | R } / T T R R R R R I I 1 @     X h ",
"t @ g @ @ I I R Y R E E E E R E ) ) ( ( z.C.z.l.x.T T E T ) ( T T ) ( P.P.( B.( V.P.) T | X.R E E ) / E T R R Y R R I I @ l g f ",
"@ t +   I I R R Y E / ) B.T | T ) B.) l.l.l.z.Z.l./ / / ) ( ) V./ ( ( ( ( B.B.L.( B.) ~.) T Z.B.V.P.( B.E R R R R R R I I s u h ",
"t t   I I R R T E E ) l.( ) ) B.) c.V.x.B.L.c.b.l.Z.E T V.( l.( V.B.] B.( c.b.!.C.( L.I.B.) }.P.) B.( B.E ^ Y E E R R R I I g z ",
"t 1 I I R R E T ) ( ( l.( ( V.( B.c.V.).v.c.b.] v.z.) / z.B.I.b.( ( c.] B.] L.] C.) U.{.B.) V.W.c.( l.R./ R R R E E E R R I # l ",
"g 1 I R R E E ( ) ( ( L.c.l.( c.c.I.A.!.L.U.c.v.] ] z.z.x.( b.E.c.!.U.U.S.] b.L.( !.{.I.) V.B.B.!.( T.| R Y E T R E E R R I 1 d ",
"1 1 I R E E ( ) ( B.b.c.U.L.( U.U.v.I.v.A.E.L.c.b.c.b.Z.x.C.b.b.c.c.].c.] c.I.I.c. X{.I.].) E.L.W.( V.| { T E R E E E R R I 1 1 ",
"1 1 I I E E ( ( c.c.] ] ] ] v.] c.I.v.W.I.b.v.v.b.v.x.V.I.B.c.] !.m.] ] b.L.!.Q.!.oXW.I.I.M.!.] c.] ( E '.T E E E ( E R I I 1 1 ",
"1 1 1 I I E ( ( ( b.] c.] ] L.!.U.W.b.v.M.b.b.c.b.M.I.I.] b.] /.] A.S.b.U.Y.!.b.U.U.!.b.W.{.] L.L.L.( ( E ( ( ( ( ( R I I 1 1 1 ",
"# 1 1 I I I I ) ( ( b.c.b.b.b.] M.c.] c.N.b.A.S.n.m.A.n.n.m.M.n.A.A.M.m.A.m.A.|.n.L.b.x.U.] U.P.L.c.b.( B.( ( ( ( R I 1 1 1 1 g ",
"g 1 1 1 1 I I I R ) c.c.b.] c.n.U.U.n._.A.S.M.D.N.N.N.N.N.N.D.N.N.D.N.N.N.N.N./._./.A. XI.Q.L.b./.L.] c.] ] R R I I 1 1 @ @ 1 t ",
"g @ 1 1 1 1 I I I I R B.c.b.n.n.m.x._.N.D.N.N.D.N.N.N.].R.{.R.R.A.].R.Y.D./.M.D.N.N.m.A./.v.m.m.x.U.c.] R R I I I 1 1   @ @ g g ",
"g 1 1 @ 1 1 1 1 I I U I I I Q I N.N.N.N.}.].R.Q.R.R.Y.}.XX.XXX|..X|._.).R.}.R.]. X].N.N.m.A.n.A.Y { R R I I I 1 1 1 @       g g ",
"g 1 @ @ 1 @ @ 1 1 1 1 I U I I I U I ' Y R R |._.XXoX|.|.|.XX_._.XX|._.|.|.|..X.X_. .{ R R R Y R I I I I 1 1 1 @ @ 1 1 1 1 t t , ",
"t < 1 1   @ 1 1 1 1 1 1 ! 4 1 1 U Q I I I U I Y R R R Y Y { R R { } Y R  .X.{ R R U I I [ I [ I [ I 1 1 1 1 1 @ @ @ @ @ 1 1 1 g ",
"< @ + +     1 @ 1 @ @ 1 1 4 1 4 1 1 I I I U I I I I I I I I U [ I I [ U [ ..I I I I I I I I 1 1 1 1 1 1 1 9 9 1 1 1 v 1 @ @ 1 t ",
"g + + g :   1 @ @ @ @ @ 1 1 1 1 1 1 1 4 1 1 I I U I I Q I I I [ I U I I U I I I I I [ 1 1 1 1 ;     1 1 6 6 A c # 1 A A J X g g ",
"          # 1 @ @ @ @ @ @   1 1 1 @ 1 1 1 1 4 1 4 1 1 4 4 1 1 1 1 1 1 4 1 1 1 1 1 1 1 1 1     0 0 w   1 1 9 x A 1 u 1 A o.u t u ",
"g l g   # y < 1   1   @ @       i @ @ @ 1 1 1 1 1 1 1 1 1 1 1 1 1 1 1 1 1 1 1 @ @ 1 1     1 g 6 h 9 1     1 +.v 1 h # # X   g u ",
"g * % # + r p 1 1   @ 1 @ @ 1 9 q     @ @ @ 1 1 1 @ @ 1 1 1 1 1 1 1 @ 1 1 1 1 @       8 x @ 1 w 0 1 1 A u h g t 1 x h > - o.:.g ",
"g * - X #   F + 1 1 w 7 0 ; @ 1 @ @ z b @ u @ @ @ @ @ 1 1 1 1 @ @ @ @ @ @ 1 1 1 8 9 0 6 w 9 1 6 8 1 @ @ + @ @ @ 1 + + H u i g g ",
"- 6 X + @ + h + + 1 x * 6 8 X     + + @ v z A @     @ @ 1 1 @ @ @ @ @ @ @ @ @ @ 1 @ 8 0 8 1 @ + w h b F g @ 1 h + +     x h g o.",
"            >   X X # v 0 =     * 0 % 6 6 6 + z @   @ @ @ 1 @ @ @               1 1 1 q @ J c 8   x v F @ f y x     z u c A o.o.",
"- * t x   = - x   X +     z 9 * u v z F x v z 6 d     @ @ @ @ @     w 6 y 9 9 O @ 1 1 1 1 F - 0 z 1 v + X z = a y F : : h d o.g ",
"f t * = * = & 7 6 - 6 v v g h z c z F F p g 6 u 1 @ # u i         w 7 $ y w & 9 + 8 @ 1 @ 1 1 1 1 v A l A 9 A u A v y u x A t g ",
"o.- g 9 - f w h h g g x t z z x r x v g g 6 z @ @ F - 6 9 0 w 9 - ; % : g : t X g + @ @ @ @ 1 1 c x w w 6 = t z y z t h F t g o.",
"u * x x z A 8 p o.7 & 6 g u - - * 6 > w & $ A + $ 7 $ - > * * - 9 A g v h g v f w 9 u     @ @ @ @ 6 v z g > u x h v A o.N s o.l ",
"g 6 o.: z g 9 $ 6 & : g 9 g > $ $ : >   . X X $ > 7 > t > 6 > : r 6 h 6 g w w % 0 & & o 0       + +     l d < t u o.d M i J o.o.",
"o.o.: p o.:.: y x u : i g r y o y - $ $ > 7 : : > - g - * % $ > z u x 9 t A 6 y u o.z $ 6 6 6 % 0 $ g $ 6 6 z o.M :.+.+.:.i l l ",
"o.o.o.i o.+.g : i o.h g t z g g o.o.g g g o.: : l g g t g o.l u u x +.u B =.o.l :.2.:.o.O.o.v u z 6 * t o.+.<.:.o.+.o.o.o.l l l ",
"o.l o.l d o.o.o.o.o.g d d o.l o.o.o.o.o.o.o.o.t l i o.l l o.o.l o.:.l l l o.=.<.:.:.o.o.:.l o.o.l :.+.o.o.:.o.o.+.o.o.o.l o.o.o."
};
