/* XPM */
static char *_6777df123914763d1d42b960fc95394F0XplYkqsdjZN0Uy[] = {
/* columns rows colors chars-per-pixel */
"64 64 6 1 ",
"  c gray25",
". c gray50",
"X c gray63",
"o c #C3C3C3",
"O c gray85",
"+ c white",
/* pixels */
"++++++++++++++++++++++++++++++  ++++++++++++++++++++++++++++++  ",
"++++++++++++++++++++++++++++++  ++++++++++++++++++++++++++++++  ",
"++OOOOOOOOOOOOOOOOOOOOOOOOOOO.  ++OOOOOOOOOOOOOOOOOOOOOOOOOOO.  ",
"++OOOOOOOOOOOOOOOOOOOOOOOOOO..  ++OOOOOOOOOOOOOOOOOOOOOOOOOO..  ",
"++OOoooooooooooooooooooooooX..  ++OOoooooooooooooooooooooooX..  ",
"++OOooooooooooooooooooooooXX..  ++OOooooooooooooooooooooooXX..  ",
"++OOoooooooooooooooooooooXXX..  ++OOoooooooooooooooooooooXXX..  ",
"++OOooooooooooooooooooooXXXX..  ++OOooooooooooooooooooooXXXX..  ",
"++OOoooooooooooooooooooXXXXX..  ++OOoooooooooooooooooooXXXXX..  ",
"++OOooooooooooooooooooXXXXXX..  ++OOooooooooooooooooooXXXXXX..  ",
"++OOoooooooooooooooooXXXXXXX..  ++OOoooooooooooooooooXXXXXXX..  ",
"++OOooooooooooooooooXXXXXXXX..  ++OOooooooooooooooooXXXXXXXX..  ",
"++OOoooooooooooooooXXXXXXXXX..  ++OOoooooooooooooooXXXXXXXXX..  ",
"++OOooooooooooooooXXXXXXXXXX..  ++OOooooooooooooooXXXXXXXXXX..  ",
"++OOoooooooooooooXXXXXXXXXXX..  ++OOoooooooooooooXXXXXXXXXXX..  ",
"++OOooooooooooooXXXXXXXXXXXX..  ++OOooooooooooooXXXXXXXXXXXX..  ",
"++OOoooooooooooXXXXXXXXXXXXX..  ++OOoooooooooooXXXXXXXXXXXXX..  ",
"++OOooooooooooXXXXXXXXXXXXXX..  ++OOooooooooooXXXXXXXXXXXXXX..  ",
"++OOoooooooooXXXXXXXXXXXXXXX..  ++OOoooooooooXXXXXXXXXXXXXXX..  ",
"++OOooooooooXXXXXXXXXXXXXXXX..  ++OOooooooooXXXXXXXXXXXXXXXX..  ",
"++OOoooooooXXXXXXXXXXXXXXXXX..  ++OOoooooooXXXXXXXXXXXXXXXXX..  ",
"++OOooooooXXXXXXXXXXXXXXXXXX..  ++OOooooooXXXXXXXXXXXXXXXXXX..  ",
"++OOoooooXXXXXXXXXXXXXXXXXXX..  ++OOoooooXXXXXXXXXXXXXXXXXXX..  ",
"++OOooooXXXXXXXXXXXXXXXXXXXX..  ++OOooooXXXXXXXXXXXXXXXXXXXX..  ",
"++OOoooXXXXXXXXXXXXXXXXXXXXX..  ++OOoooXXXXXXXXXXXXXXXXXXXXX..  ",
"++OOooXXXXXXXXXXXXXXXXXXXXXX..  ++OOooXXXXXXXXXXXXXXXXXXXXXX..  ",
"++OOoXXXXXXXXXXXXXXXXXXXXXXX..  ++OOoXXXXXXXXXXXXXXXXXXXXXXX..  ",
"++OOXXXXXXXXXXXXXXXXXXXXXXXX..  ++OOXXXXXXXXXXXXXXXXXXXXXXXX..  ",
"++O...........................  ++O...........................  ",
"++............................  ++............................  ",
"                                                                ",
"                                                                ",
"++++++++++++++++++++++++++++++  ++++++++++++++++++++++++++++++  ",
"++++++++++++++++++++++++++++++  ++++++++++++++++++++++++++++++  ",
"++OOOOOOOOOOOOOOOOOOOOOOOOOOO.  ++OOOOOOOOOOOOOOOOOOOOOOOOOOO.  ",
"++OOOOOOOOOOOOOOOOOOOOOOOOOO..  ++OOOOOOOOOOOOOOOOOOOOOOOOOO..  ",
"++OOoooooooooooooooooooooooX..  ++OOoooooooooooooooooooooooX..  ",
"++OOooooooooooooooooooooooXX..  ++OOooooooooooooooooooooooXX..  ",
"++OOoooooooooooooooooooooXXX..  ++OOoooooooooooooooooooooXXX..  ",
"++OOooooooooooooooooooooXXXX..  ++OOooooooooooooooooooooXXXX..  ",
"++OOoooooooooooooooooooXXXXX..  ++OOoooooooooooooooooooXXXXX..  ",
"++OOooooooooooooooooooXXXXXX..  ++OOooooooooooooooooooXXXXXX..  ",
"++OOoooooooooooooooooXXXXXXX..  ++OOoooooooooooooooooXXXXXXX..  ",
"++OOooooooooooooooooXXXXXXXX..  ++OOooooooooooooooooXXXXXXXX..  ",
"++OOoooooooooooooooXXXXXXXXX..  ++OOoooooooooooooooXXXXXXXXX..  ",
"++OOooooooooooooooXXXXXXXXXX..  ++OOooooooooooooooXXXXXXXXXX..  ",
"++OOoooooooooooooXXXXXXXXXXX..  ++OOoooooooooooooXXXXXXXXXXX..  ",
"++OOooooooooooooXXXXXXXXXXXX..  ++OOooooooooooooXXXXXXXXXXXX..  ",
"++OOoooooooooooXXXXXXXXXXXXX..  ++OOoooooooooooXXXXXXXXXXXXX..  ",
"++OOooooooooooXXXXXXXXXXXXXX..  ++OOooooooooooXXXXXXXXXXXXXX..  ",
"++OOoooooooooXXXXXXXXXXXXXXX..  ++OOoooooooooXXXXXXXXXXXXXXX..  ",
"++OOooooooooXXXXXXXXXXXXXXXX..  ++OOooooooooXXXXXXXXXXXXXXXX..  ",
"++OOoooooooXXXXXXXXXXXXXXXXX..  ++OOoooooooXXXXXXXXXXXXXXXXX..  ",
"++OOooooooXXXXXXXXXXXXXXXXXX..  ++OOooooooXXXXXXXXXXXXXXXXXX..  ",
"++OOoooooXXXXXXXXXXXXXXXXXXX..  ++OOoooooXXXXXXXXXXXXXXXXXXX..  ",
"++OOooooXXXXXXXXXXXXXXXXXXXX..  ++OOooooXXXXXXXXXXXXXXXXXXXX..  ",
"++OOoooXXXXXXXXXXXXXXXXXXXXX..  ++OOoooXXXXXXXXXXXXXXXXXXXXX..  ",
"++OOooXXXXXXXXXXXXXXXXXXXXXX..  ++OOooXXXXXXXXXXXXXXXXXXXXXX..  ",
"++OOoXXXXXXXXXXXXXXXXXXXXXXX..  ++OOoXXXXXXXXXXXXXXXXXXXXXXX..  ",
"++OOXXXXXXXXXXXXXXXXXXXXXXXX..  ++OOXXXXXXXXXXXXXXXXXXXXXXXX..  ",
"++O...........................  ++O...........................  ",
"++............................  ++............................  ",
"                                                                ",
"                                                                "
};
